<svg version="1.1" id="Layer_1" xmlns="http://www.w3.org/2000/svg" xmlns:xlink="http://www.w3.org/1999/xlink" x="0px" y="0px"
	 width="100%" viewBox="0 0 460 460" enable-background="new 0 0 460 460" xml:space="preserve">
<path fill="#339AF0" opacity="1.000000" stroke="none" 
	d="
M213.000000,461.000000 
	C142.019150,461.000000 71.538307,461.000000 1.028730,461.000000 
	C1.028730,307.727478 1.028730,154.454956 1.028730,1.091216 
	C154.230820,1.091216 307.461700,1.091216 460.846313,1.091216 
	C460.846313,154.333221 460.846313,307.666595 460.846313,461.000000 
	C378.455017,461.000000 295.977509,461.000000 213.000000,461.000000 
M282.298462,142.899063 
	C267.637207,142.898010 252.973206,143.039932 238.317413,142.756851 
	C235.839706,142.708984 232.981934,141.333191 231.014084,139.706696 
	C224.238129,134.106079 217.980194,127.873291 211.146652,122.349236 
	C203.095184,115.840652 191.405899,118.290421 186.102631,127.161537 
	C180.780457,136.064301 182.829666,144.069229 192.978485,152.122223 
	C212.474564,167.592194 224.868073,187.322311 230.444168,211.643051 
	C239.039215,249.131317 223.073746,292.325409 191.844635,314.748810 
	C182.563797,321.412689 180.812363,331.028778 187.179047,340.364807 
	C192.345825,347.941345 202.966034,349.553528 211.559433,343.266937 
	C217.820389,338.686615 223.511322,333.266449 229.103394,327.855835 
	C232.327560,324.736298 235.294403,322.685852 240.208328,322.823761 
	C254.524963,323.225494 268.861725,323.084137 283.187561,322.908234 
	C290.137146,322.822906 295.746582,319.955170 299.048492,313.474823 
	C302.226135,307.238373 301.638947,301.280792 297.724823,295.567505 
	C293.986084,290.110138 288.495239,288.194427 282.221680,288.120148 
	C273.819305,288.020691 265.414856,288.095520 256.184631,288.095520 
	C271.677948,250.987381 271.528809,214.589966 256.184509,177.671936 
	C265.420441,177.671936 273.558655,177.689163 281.696716,177.666336 
	C287.943115,177.648804 293.632324,176.271912 297.479095,170.773682 
	C301.162872,165.508423 302.381683,159.834946 299.670380,153.796143 
	C296.513336,146.764603 290.990021,143.098328 282.298462,142.899063 
M168.777008,247.741867 
	C179.481842,256.645142 196.468582,255.155350 205.104248,244.555847 
	C214.073654,233.546738 212.715500,217.235016 202.074142,208.163666 
	C191.137161,198.840347 174.561050,200.095551 165.266830,210.950882 
	C156.202988,221.537155 157.552612,238.062042 168.777008,247.741867 
z"/>
<path fill="#FDFEFF" opacity="1.000000" stroke="none" 
	d="
M282.766174,142.901550 
	C290.990021,143.098328 296.513336,146.764603 299.670380,153.796143 
	C302.381683,159.834946 301.162872,165.508423 297.479095,170.773682 
	C293.632324,176.271912 287.943115,177.648804 281.696716,177.666336 
	C273.558655,177.689163 265.420441,177.671936 256.184509,177.671936 
	C271.528809,214.589966 271.677948,250.987381 256.184631,288.095520 
	C265.414856,288.095520 273.819305,288.020691 282.221680,288.120148 
	C288.495239,288.194427 293.986084,290.110138 297.724823,295.567505 
	C301.638947,301.280792 302.226135,307.238373 299.048492,313.474823 
	C295.746582,319.955170 290.137146,322.822906 283.187561,322.908234 
	C268.861725,323.084137 254.524963,323.225494 240.208328,322.823761 
	C235.294403,322.685852 232.327560,324.736298 229.103394,327.855835 
	C223.511322,333.266449 217.820389,338.686615 211.559433,343.266937 
	C202.966034,349.553528 192.345825,347.941345 187.179047,340.364807 
	C180.812363,331.028778 182.563797,321.412689 191.844635,314.748810 
	C223.073746,292.325409 239.039215,249.131317 230.444168,211.643051 
	C224.868073,187.322311 212.474564,167.592194 192.978485,152.122223 
	C182.829666,144.069229 180.780457,136.064301 186.102631,127.161537 
	C191.405899,118.290421 203.095184,115.840652 211.146652,122.349236 
	C217.980194,127.873291 224.238129,134.106079 231.014084,139.706696 
	C232.981934,141.333191 235.839706,142.708984 238.317413,142.756851 
	C252.973206,143.039932 267.637207,142.898010 282.766174,142.901550 
z"/>
<path fill="#FDFEFF" opacity="1.000000" stroke="none" 
	d="
M168.505157,247.507385 
	C157.552612,238.062042 156.202988,221.537155 165.266830,210.950882 
	C174.561050,200.095551 191.137161,198.840347 202.074142,208.163666 
	C212.715500,217.235016 214.073654,233.546738 205.104248,244.555847 
	C196.468582,255.155350 179.481842,256.645142 168.505157,247.507385 
z"/>
</svg>